<mxfile host="app.diagrams.net" modified="2024-04-10T01:17:54.369Z" agent="Mozilla/5.0 (Windows NT 10.0; Win64; x64) AppleWebKit/537.36 (KHTML, like Gecko) Chrome/123.0.0.0 Safari/537.36" etag="8OCDaqMaP0Ycsxi7vXkU" version="24.2.3" type="google">
  <diagram name="Page-1" id="lNrU6Vku8YIeoAnE-4pk">
    <mxGraphModel grid="1" page="1" gridSize="10" guides="1" tooltips="1" connect="1" arrows="1" fold="1" pageScale="1" pageWidth="850" pageHeight="1100" math="0" shadow="0">
      <root>
        <mxCell id="0" />
        <mxCell id="1" parent="0" />
        <mxCell id="VUZSVhgWxLLKm5Znk2dG-1" value="&lt;b&gt;CentOS Server&lt;br&gt;with FTP &amp;amp;&lt;/b&gt;&lt;div&gt;&lt;b&gt;&amp;nbsp;SSH configured&lt;br&gt;&lt;/b&gt;&lt;div&gt;&lt;br&gt;&lt;/div&gt;&lt;/div&gt;" style="verticalLabelPosition=bottom;html=1;verticalAlign=top;align=center;strokeColor=none;fillColor=#00BEF2;shape=mxgraph.azure.virtual_machine;" vertex="1" parent="1">
          <mxGeometry x="200" y="130" width="80" height="60" as="geometry" />
        </mxCell>
        <mxCell id="VUZSVhgWxLLKm5Znk2dG-2" value="&lt;b&gt;Kali Linux (Attacker)&lt;/b&gt;" style="verticalLabelPosition=bottom;html=1;verticalAlign=top;align=center;strokeColor=#FF3333;fillColor=#FF0000;shape=mxgraph.azure.virtual_machine;" vertex="1" parent="1">
          <mxGeometry x="540" y="140" width="100" height="70" as="geometry" />
        </mxCell>
        <mxCell id="VUZSVhgWxLLKm5Znk2dG-9" value="&lt;b&gt;VMware&lt;br&gt;Gateway&lt;/b&gt;" style="sketch=0;points=[[0.5,0,0],[1,0.5,0],[0.5,1,0],[0,0.5,0],[0.145,0.145,0],[0.8555,0.145,0],[0.855,0.8555,0],[0.145,0.855,0]];verticalLabelPosition=bottom;html=1;verticalAlign=top;aspect=fixed;align=center;pointerEvents=1;shape=mxgraph.cisco19.rect;prIcon=router;fillColor=#FAFAFA;strokeColor=#005073;" vertex="1" parent="1">
          <mxGeometry x="360" y="130" width="50" height="50" as="geometry" />
        </mxCell>
        <mxCell id="xrln1t2OAtCOszoa6FAw-1" value="&lt;b&gt;root (Victim)&lt;/b&gt;" style="html=1;verticalLabelPosition=bottom;align=center;labelBackgroundColor=#ffffff;verticalAlign=top;strokeWidth=2;strokeColor=#0080F0;shadow=0;dashed=0;shape=mxgraph.ios7.icons.user;" vertex="1" parent="1">
          <mxGeometry x="90" y="60" width="30" height="30" as="geometry" />
        </mxCell>
        <mxCell id="xrln1t2OAtCOszoa6FAw-2" value="&lt;b&gt;syed (Victim)&lt;/b&gt;" style="html=1;verticalLabelPosition=bottom;align=center;labelBackgroundColor=#ffffff;verticalAlign=top;strokeWidth=2;strokeColor=#0080F0;shadow=0;dashed=0;shape=mxgraph.ios7.icons.user;" vertex="1" parent="1">
          <mxGeometry x="90" y="140" width="30" height="30" as="geometry" />
        </mxCell>
        <mxCell id="xrln1t2OAtCOszoa6FAw-3" value="&lt;b&gt;testuser (Victim)&lt;/b&gt;" style="html=1;verticalLabelPosition=bottom;align=center;labelBackgroundColor=#ffffff;verticalAlign=top;strokeWidth=2;strokeColor=#0080F0;shadow=0;dashed=0;shape=mxgraph.ios7.icons.user;" vertex="1" parent="1">
          <mxGeometry x="90" y="210" width="30" height="30" as="geometry" />
        </mxCell>
        <mxCell id="xrln1t2OAtCOszoa6FAw-5" value="" style="endArrow=classic;startArrow=classic;html=1;rounded=0;exitX=1.044;exitY=0.511;exitDx=0;exitDy=0;exitPerimeter=0;entryX=0.01;entryY=0.01;entryDx=0;entryDy=0;entryPerimeter=0;" edge="1" parent="1" source="xrln1t2OAtCOszoa6FAw-1" target="VUZSVhgWxLLKm5Znk2dG-1">
          <mxGeometry width="50" height="50" relative="1" as="geometry">
            <mxPoint x="400" y="160" as="sourcePoint" />
            <mxPoint x="450" y="110" as="targetPoint" />
          </mxGeometry>
        </mxCell>
        <mxCell id="xrln1t2OAtCOszoa6FAw-6" value="" style="endArrow=classic;startArrow=classic;html=1;rounded=0;exitX=1.022;exitY=0.556;exitDx=0;exitDy=0;exitPerimeter=0;entryX=0;entryY=0.5;entryDx=0;entryDy=0;entryPerimeter=0;" edge="1" parent="1" source="xrln1t2OAtCOszoa6FAw-2" target="VUZSVhgWxLLKm5Znk2dG-1">
          <mxGeometry width="50" height="50" relative="1" as="geometry">
            <mxPoint x="130" y="180" as="sourcePoint" />
            <mxPoint x="180" y="130" as="targetPoint" />
          </mxGeometry>
        </mxCell>
        <mxCell id="xrln1t2OAtCOszoa6FAw-7" value="" style="endArrow=classic;startArrow=classic;html=1;rounded=0;exitX=1.067;exitY=0.6;exitDx=0;exitDy=0;exitPerimeter=0;entryX=0.01;entryY=0.99;entryDx=0;entryDy=0;entryPerimeter=0;" edge="1" parent="1" source="xrln1t2OAtCOszoa6FAw-3" target="VUZSVhgWxLLKm5Znk2dG-1">
          <mxGeometry width="50" height="50" relative="1" as="geometry">
            <mxPoint x="400" y="160" as="sourcePoint" />
            <mxPoint x="450" y="110" as="targetPoint" />
          </mxGeometry>
        </mxCell>
        <mxCell id="xrln1t2OAtCOszoa6FAw-13" value="" style="shape=singleArrow;direction=west;whiteSpace=wrap;html=1;" vertex="1" parent="1">
          <mxGeometry x="410" y="140" width="100" height="30" as="geometry" />
        </mxCell>
        <mxCell id="xrln1t2OAtCOszoa6FAw-14" value="&lt;b&gt;&lt;font style=&quot;font-size: 14px;&quot;&gt;VMware Workstation&lt;/font&gt;&lt;/b&gt;" style="text;strokeColor=none;align=center;fillColor=none;html=1;verticalAlign=middle;whiteSpace=wrap;rounded=0;" vertex="1" parent="1">
          <mxGeometry x="295" y="270" width="160" height="30" as="geometry" />
        </mxCell>
        <mxCell id="xrln1t2OAtCOszoa6FAw-18" value="" style="edgeStyle=orthogonalEdgeStyle;rounded=0;orthogonalLoop=1;jettySize=auto;html=1;" edge="1" parent="1" target="VUZSVhgWxLLKm5Znk2dG-1">
          <mxGeometry relative="1" as="geometry">
            <mxPoint x="240" y="70" as="sourcePoint" />
          </mxGeometry>
        </mxCell>
        <mxCell id="xrln1t2OAtCOszoa6FAw-16" value="" style="endArrow=classic;startArrow=classic;html=1;rounded=0;entryX=0.5;entryY=0;entryDx=0;entryDy=0;entryPerimeter=0;" edge="1" parent="1" target="VUZSVhgWxLLKm5Znk2dG-1">
          <mxGeometry width="50" height="50" relative="1" as="geometry">
            <mxPoint x="240" y="70" as="sourcePoint" />
            <mxPoint x="240" y="90" as="targetPoint" />
          </mxGeometry>
        </mxCell>
        <mxCell id="xrln1t2OAtCOszoa6FAw-19" value="CIC-Flowmeter-V4" style="text;strokeColor=none;align=center;fillColor=none;html=1;verticalAlign=middle;whiteSpace=wrap;rounded=0;" vertex="1" parent="1">
          <mxGeometry x="261.5" y="30" width="110" height="20" as="geometry" />
        </mxCell>
        <mxCell id="xrln1t2OAtCOszoa6FAw-22" value="&lt;font style=&quot;font-size: 10px;&quot;&gt;Repeated Login Attempts&lt;/font&gt;" style="text;strokeColor=none;align=center;fillColor=none;html=1;verticalAlign=middle;whiteSpace=wrap;rounded=0;" vertex="1" parent="1">
          <mxGeometry x="410" y="115" width="100" height="40" as="geometry" />
        </mxCell>
        <mxCell id="xrln1t2OAtCOszoa6FAw-25" value="" style="verticalLabelPosition=bottom;html=1;verticalAlign=top;align=center;strokeColor=#FF0000;fillColor=#FF3333;shape=mxgraph.azure.file_2;pointerEvents=1;" vertex="1" parent="1">
          <mxGeometry x="520" y="60" width="37.5" height="40" as="geometry" />
        </mxCell>
        <mxCell id="xrln1t2OAtCOszoa6FAw-28" value="" style="shape=image;verticalLabelPosition=bottom;labelBackgroundColor=default;verticalAlign=top;aspect=fixed;imageAspect=0;image=data:image/svg+xml,PHN2ZyB4bWxucz0iaHR0cDovL3d3dy53My5vcmcvMjAwMC9zdmciIHZpZXdCb3g9IjAgMCAxMzUuNDcgMTM1LjQ3IiB2ZXJzaW9uPSIxLjEiIGhlaWdodD0iNTEyIiB3aWR0aD0iNTEyIj48ZyBzdHJva2UtbGluZWNhcD0icm91bmQiIHRyYW5zZm9ybT0ibWF0cml4KDEuMDI5NCAuMDkxMzgzIC0uMDkxMzgzIDEuMDI5NCAzLjM4MTYgLTEwLjUzNikiPjxyZWN0IHN0cm9rZS13aWR0aD0iNC4xNDUxIiBmaWxsPSIjZmQzNTM1IiByeT0iMi4zNzM1IiByeD0iMS43MDUzIiBoZWlnaHQ9IjE0LjUyMSIgd2lkdGg9IjMuOTEyMiIgeT0iOTMuMzM4IiB4PSIzNy40MDYiIHRyYW5zZm9ybT0icm90YXRlKC0zNi4zNjYpIi8+PHJlY3Qgc3Ryb2tlLXdpZHRoPSIxLjYwNzQiIGZpbGw9IiM0YzRmNWMiIHJ5PSI0LjkyNTciIHJ4PSIyLjc2IiBoZWlnaHQ9IjkuODUxNSIgd2lkdGg9Ijc3LjE3NSIgeT0iODYuNjQ1IiB4PSIzLjY0NzYiIHRyYW5zZm9ybT0icm90YXRlKC00NSkiLz48cGF0aCBzdHJva2Utd2lkdGg9IjEuNjA3NCIgb3BhY2l0eT0iLjMiIGQ9Im0xMjMuODIgMTAuNzRjLTAuMDg0NyAwLjI0MjItMC4yMTAzIDAuNDU5MTEtMC4zODgwNiAwLjYzNjg4bC01MC42NjggNTAuNjY3Yy0xLjA4MTIgMS4wODEyLTMuNTA1IDAuMzk4MzgtNS40MzQ2LTEuNTMxMi0wLjk5OTIyLTAuOTk5MjItMS42NjA1LTIuMTI5OS0xLjkxOTMtMy4xMzkxLTAuNDI5OTggMS4yMzA5IDAuMzA3MTcgMy4xODUgMS45MTkzIDQuNzk3MSAxLjkyOTYgMS45Mjk2IDQuMzUzNCAyLjYxMjQgNS40MzQ2IDEuNTMxMmw1MC42NjgtNTAuNjY3YzAuNTIxMTctMC41MjExNyAwLjYyODc5LTEuMzU1NSAwLjM4ODA2LTIuMjk0OXoiLz48cGF0aCBzdHJva2Utd2lkdGg9IjEuNjA3NCIgb3BhY2l0eT0iLjIiIGZpbGw9IiNmZmYiIGQ9Im0xMTcuODIgNS41NTY4Yy0wLjU0NDA1IDAuMDA5MDktMS4wMTMxIDAuMTc0MzQtMS4zNTEgMC41MTIyMWwtNTAuNjY3IDUwLjY2OGMtMC41MjEzIDAuNTIxMy0wLjYyOTAyIDEuMzU1OC0wLjM4ODA3IDIuMjk1NSAwLjA4NDY4LTAuMjQyNCAwLjIxMDE4LTAuNDU5NTQgMC4zODgwNy0wLjYzNzQybDUwLjY2Ny01MC42NjhjMS4wODEyLTEuMDgxMiAzLjUwNS0wLjM5NzgzIDUuNDM0NiAxLjUzMTggMC45OTk0NCAwLjk5OTQ1IDEuNjYxMiAyLjEzMDIgMS45MTk4IDMuMTM5NiAwLjQzMDM1LTEuMjMwOC0wLjMwNzUtMy4xODUzLTEuOTE5OC00Ljc5NzctMS4zMjY2LTEuMzI2Ni0yLjg4NjctMi4wNjQtNC4wODM2LTIuMDQ0eiIvPjxwYXRoIHN0cm9rZS13aWR0aD0iMS45MzkzIiBmaWxsPSIjMWIzZjdjIiBkPSJtMjIuNDM1IDg2LjIxNWMtMC4wNzMxMiAwLjA3MzEyLTAuMTM5NjYgMC4xNDg5MS0wLjIwMTU4IDAuMjI1OTVhNC40NjMxIDcuMjU1MiA0NSAwIDEgNi42MzQ2LTAuNjAyOTUgNC40NjMxIDcuMjU1MiA0NSAwIDEtMC42MDI4NyA2LjYzNDJjMC4wNzY5Ny0wLjA2MTg2IDAuMTUyNjktMC4xMjgzMSAwLjIyNTczLTAuMjAxMzVsMTUuNDc5LTE1LjQ3OWE0LjQ2MzEgNy4yNTUyIDQ1IDAgMS02LjcxMjQgMC42NTY3IDQuNDYzMSA3LjI1NTIgNDUgMCAxIDAuNjU2MzQtNi43MTI0eiIvPjxwYXRoIHN0cm9rZS13aWR0aD0iMi40NzI2IiBmaWxsPSIjOTUxMjEyIiBkPSJtMzIuNjI3IDk3LjcwMmE5Ljc3MzkgOS43NzM5IDAgMCAwIDEuOTE5NCA1LjEyMzEgOS43NzM5IDkuNzczOSAwIDAgMCAxMC4wMjUgMy42Njk5IDkuNzczOSA5Ljc3MzkgMCAwIDEtNi4zOTI1LTMuODE0MyA5Ljc3MzkgOS43NzM5IDAgMCAxLTEuNTE2LTguNzIzMnoiLz48cmVjdCBzdHJva2Utd2lkdGg9IjEuODE5OCIgZmlsbD0iI2IyMjUyNSIgcnk9IjQuMjYwNSIgcng9IjQuMjYwNSIgaGVpZ2h0PSIyOC4xNDgiIHdpZHRoPSIxNy4zOTYiIHk9IjEwOC41NiIgeD0iLTguOTQwMyIgdHJhbnNmb3JtPSJyb3RhdGUoLTE1KSIvPjxyZWN0IHN0cm9rZS13aWR0aD0iLjkxNDk1IiBmaWxsPSIjMjY1NmE4IiByeT0iMS43MTQ5IiByeD0iMS43MTQ5IiBoZWlnaHQ9IjUuNTQ4OSIgd2lkdGg9IjQ0LjM5MSIgeT0iNzMuNjUxIiB4PSItNDkuOTciIHRyYW5zZm9ybT0icm90YXRlKC00NSkiLz48cGF0aCBzdHJva2Utd2lkdGg9IjIuNDcyNiIgZmlsbD0iI2ZkMzUzNSIgZD0ibTc4LjUwOCAzOC44NjFjLTAuNzc0Ni0wLjAxMDI4LTEuNDM1MiAwLjIwNTY1LTEuOTAyIDAuNjcyNWwtNjQuNDEyIDY0LjQxMmMtMS40OTM5IDEuNDkzOS0wLjQxNzQgNC45NzU2IDIuNDEzNyA3LjgwNjdsMi44NDgyIDIuODQ4MmMyLjgzMTEgMi44MzExIDYuMzEzMyAzLjkwNzYgNy44MDcyIDIuNDEzN2w4LjU4MDctOC41ODA2YzAuMTUxNzMgMC4yNDU3MSAwLjMzNDg2IDAuNDgxNjcgMC41NTI2OSAwLjY5OTQ5bDUuNjYwNyA1LjY2MDdjMC4wODEwNiAwLjA4MSAwLjE2NDg2IDAuMTU2ODcgMC4yNTA0NCAwLjIyODg1IDAuMDUwODYgMC4wNjQyIDAuMTA1MDIgMC4xMjY2MSAwLjE2NDA4IDAuMTg1NjYgMC40NzQ0IDAuNDc0NCAxLjEyNzIgMC42ODA2MyAxLjgxMzUgMC42Mzk1OSAwLjY4NzExIDAuMDQxNyAxLjM0MDItMC4xNjQ2OSAxLjgxNTEtMC42Mzk1OSAwLjA1OTA1LTAuMDU5MSAwLjExMzc1LTAuMTIxMzggMC4xNjQ2Mi0wLjE4NTY2IDAuMDg1NTctMC4wNzIgMC4xNjkzOC0wLjE0Nzc4IDAuMjUwNDQtMC4yMjg4NWw1LjY2MDItNS42NjA3YzEuMjM0OS0xLjIzNDkgMS40MTk3LTMuMDM4IDAuNDE0NTEtNC4wNDMxcy0yLjgwODMtMC44MjAzNy00LjA0MzEgMC40MTQ1MmwtNC4yNjA2IDQuMjYwNi00LjI2MDYtNC4yNjA2Yy0wLjIxNzgxLTAuMjE3ODItMC40NTQzNC0wLjQwMDk3LTAuNzAwMDMtMC41NTI2OWw1Mi4zNDktNTIuMzQ5YzEuNDkzOS0xLjQ5MzkgMC40MTc0LTQuOTc2MS0yLjQxMzctNy44MDcybC0yLjg0ODItMi44NDgyYy0xLjk0NjQtMS45NDY0LTQuMjAwNS0zLjA2MzYtNS45MDQ3LTMuMDg2MnoiLz48cmVjdCBzdHJva2Utd2lkdGg9IjEuMTc4NyIgZmlsbD0iI2IyMjUyNSIgcnk9IjIuNzc0NCIgcng9IjIuNzc0NCIgaGVpZ2h0PSI1LjU0ODkiIHdpZHRoPSI3My42NjgiIHk9Ijg4LjE1NiIgeD0iLTUxLjIzOSIgdHJhbnNmb3JtPSJyb3RhdGUoLTQ1KSIvPjxyZWN0IHN0cm9rZS13aWR0aD0iLjM4MzE2IiBmaWxsPSIjYjIyNTI1IiByeT0iLjkwMTkyIiByeD0iLjkwMTkyIiBoZWlnaHQ9IjEuODAzOCIgd2lkdGg9IjIzLjk0OCIgeT0iODUuMzA4IiB4PSItNDkuMjYxIiB0cmFuc2Zvcm09InJvdGF0ZSgtNDUpIi8+PHBhdGggc3Ryb2tlLXdpZHRoPSIyLjQ3MjYiIG9wYWNpdHk9Ii4yIiBmaWxsPSIjZmZmIiBkPSJtNzguNTA4IDM4Ljg2MWMtMC43NzQ2LTAuMDEwMjgtMS40MzUyIDAuMjA1NjUtMS45MDIgMC42NzI1bC02NC40MTIgNjQuNDEyYy0wLjc0MTkzIDAuNzQxOTQtMC44NDg3IDEuOTc0Ni0wLjQyMjYxIDMuMzczOSAwLjEwNjE1LTAuMjI4MTIgMC4yNDU4MS0wLjQzMzY0IDAuNDIyNjEtMC42MTA0NGw2NC40MTItNjQuNDEyYzAuNDY2ODYtMC40NjY4NiAxLjEyNzQtMC42ODI3NCAxLjkwMi0wLjY3MjUgMS43MDQxIDAuMDIyNjMgMy45NTgzIDEuMTM5OCA1LjkwNDcgMy4wODYybDIuODQ4MiAyLjg0ODJjMS40MjUxIDEuNDI1MSAyLjQwNDQgMy4wMTQ5IDIuODM2MyA0LjQzMzQgMC43OTA4LTEuNjk5NS0wLjM0MDI2LTQuNzAwNy0yLjgzNjMtNy4xOTY4bC0yLjg0ODItMi44NDgyYy0xLjk0NjQtMS45NDY0LTQuMjAwNS0zLjA2MzYtNS45MDQ3LTMuMDg2MnoiLz48cGF0aCBzdHJva2Utd2lkdGg9IjIuNDcyNiIgb3BhY2l0eT0iLjMiIGQ9Im05MC4wOTcgNDkuMjI5Yy0wLjEwNjE1IDAuMjI4MTItMC4yNDU4MSAwLjQzMzYzLTAuNDIyNjEgMC42MTA0NGwtNTIuMzQ5IDUyLjM0OWMwLjI0NTcgMC4xNTE3MSAwLjQ4MjIyIDAuMzM0ODcgMC43MDAwMyAwLjU1MjY4bDAuNzU1MDggMC43NTU2MiA1MC44OTMtNTAuODkzYzAuNzQxOTMtMC43NDE5MyAwLjg0ODY5LTEuOTc0NSAwLjQyMjYxLTMuMzczOXptLTc4LjMyNSA1NS4zMjdjLTAuNzkwOCAxLjY5OTQgMC4zNDAyNiA0LjcwMDIgMi44MzYzIDcuMTk2MmwyLjg0ODIgMi44NDgyYzIuODMxMSAyLjgzMTEgNi4zMTMzIDMuOTA3NiA3LjgwNzIgMi40MTM3bDguNTgwNy04LjU4MDZjMC4xNTE3MyAwLjI0NTcxIDAuMzM0ODYgMC40ODE2NyAwLjU1MjY5IDAuNjk5NDlsNS42NjA3IDUuNjYwN2MwLjA4MTA2IDAuMDgxIDAuMTY0ODYgMC4xNTY4NyAwLjI1MDQ0IDAuMjI4ODUgMC4wNTA4NiAwLjA2NDIgMC4xMDUwMiAwLjEyNjYxIDAuMTY0MDggMC4xODU2NiAwLjQ3NDQgMC40NzQ0IDEuMTI3MiAwLjY4MDYzIDEuODEzNSAwLjYzOTU5IDAuNjg3MTEgMC4wNDE3IDEuMzQwMi0wLjE2NDY5IDEuODE1MS0wLjYzOTU5IDAuMDU5MDUtMC4wNTkxIDAuMTEzNzUtMC4xMjEzOCAwLjE2NDYyLTAuMTg1NjYgMC4wODU1Ny0wLjA3MiAwLjE2OTM4LTAuMTQ3NzggMC4yNTA0NC0wLjIyODg1bDUuNjYwMi01LjY2MDdjMS4xMDYtMS4xMDYgMS4zNjY3LTIuNjY1OSAwLjY4NzYyLTMuNzAyLTAuMTcxOTIgMC4zMzE5OC0wLjQwMDAyIDAuNjUxMDEtMC42ODc2MiAwLjkzODZsLTUuNjYwMiA1LjY2MDdjLTAuMDgxMDYgMC4wODExLTAuMTY0ODYgMC4xNTY4OS0wLjI1MDQ0IDAuMjI4ODUtMC4wNTA4NyAwLjA2NDMtMC4xMDU1NiAwLjEyNjU1LTAuMTY0NjIgMC4xODU2Ny0wLjQ3NDkgMC40NzQ5LTEuMTI4IDAuNjgxMjUtMS44MTUxIDAuNjM5NTgtMC42ODYzMSAwLjA0MS0xLjMzOTEtMC4xNjUxOS0xLjgxMzUtMC42Mzk1OC0wLjA1OTA1LTAuMDU5MS0wLjExMzIyLTAuMTIxNDQtMC4xNjQwOC0wLjE4NTY3LTAuMDg1NTctMC4wNzItMC4xNjkzOC0wLjE0NzgtMC4yNTA0NC0wLjIyODg1bC01LjY2MDctNS42NjA3Yy0wLjIxNzgyLTAuMjE3ODItMC40MDA5Ni0wLjQ1Mzc5LTAuNTUyNjktMC42OTk0OWwtOC41ODA3IDguNTgwNmMtMS40OTM5IDEuNDkzOS00Ljk3NjEgMC40MTc0LTcuODA3Mi0yLjQxMzdsLTIuODQ4Mi0yLjg0ODJjLTEuNDI1MS0xLjQyNTEtMi40MDQ0LTMuMDE0NS0yLjgzNjMtNC40MzI4eiIvPjxyZWN0IHN0cm9rZS13aWR0aD0iMS45MjY2IiBmaWxsPSIjMTlhMTg3IiByeT0iOC4yMzUyIiByeD0iNy4xMDY5IiBoZWlnaHQ9IjE2LjQ3IiB3aWR0aD0iNjYuMzA5IiB5PSIxMDEuODQiIHg9Ii00Mi4zNDQiIHRyYW5zZm9ybT0icm90YXRlKC00NSkiLz48cGF0aCBzdHJva2Utd2lkdGg9IjEuODE5OCIgb3BhY2l0eT0iLjMiIGQ9Im0yMi4xNDEgMTE3LjE3IDMuNTA0NyAxMy4wNzljMC42MTA4OSAyLjI3OTkgMi45MzgxIDMuNjIzNCA1LjIxNzkgMy4wMTI2bDguNTcyOC0yLjI5N2MyLjI3OTktMC42MTA4OSAzLjYyMzQtMi45MzgxIDMuMDEyNi01LjIxNzlsLTAuMjEzMTItMC43OTYwM2MtMC41MDEyNSAxLjE0MTItMS40OTY0IDIuMDUxNi0yLjc5OTUgMi40MDA4bC04LjU3MjggMi4yOTdjLTIuMjc5OSAwLjYxMDg5LTQuNjA3MS0wLjczMjc1LTUuMjE3OS0zLjAxMjZsLTIuNzA0NS0xMC4wOTN6Ii8+PHBhdGggc3Ryb2tlLXdpZHRoPSIxLjkyNjYiIG9wYWNpdHk9Ii4zIiBkPSJtOTcuMzIxIDY1LjYzNWMtMC4yMzk5OCAxLjI0OTYtMC44MTY5IDIuNDA3NS0xLjc0NTUgMy4zMzYxbC0zNi44MzcgMzYuODM3Yy0yLjc4NCAyLjc4NC03LjYyMjYgMi40MjgzLTEwLjg0OS0wLjc5NzczLTEuMzgzMS0xLjM4My0yLjIzNy0zLjA2MjgtMi41NDM4LTQuNzQ5Ni0wLjQ3OTY2IDIuNDk3IDAuMzkzNjMgNS4zNjI5IDIuNTQzOCA3LjUxMzEgMy4yMjYgMy4yMjYgOC4wNjQ2IDMuNTgxOCAxMC44NDkgMC43OTc3MmwzNi44MzctMzYuODM3YzEuNTkwNi0xLjU5MDYgMi4xNTQ0LTMuODUxNiAxLjc0NTUtNi4wOTk1eiIvPjxwYXRoIHN0cm9rZS13aWR0aD0iMS45MjY2IiBvcGFjaXR5PSIuMiIgZmlsbD0iI2ZmZiIgZD0ibTg4LjQ1NiA1OC4yMTRjLTEuNjk3NCAwLjAzODYyLTMuMzA4NyAwLjY1NTkzLTQuNTI2NyAxLjg3MzlsLTM2LjgzNyAzNi44MzdjLTEuNTIzNiAxLjUyMzYtMi4xMDQ5IDMuNjYyNC0xLjc5MTkgNS44MTU2IDAuMjA1MjYtMS4zNTIyIDAuNzk3MDItMi42MSAxLjc5MTktMy42MDQ5bDM2LjgzNy0zNi44MzdjMi43ODQtMi43ODQgNy42MjI2LTIuNDI4MyAxMC44NDkgMC43OTc3MiAxLjQ2MDggMS40NjA4IDIuMzMwMyAzLjI1MiAyLjU4OTEgNS4wMzM1IDAuMzY5NDQtMi40MzItMC41MTU2Ni01LjE3MDgtMi41ODkxLTcuMjQ0My0xLjgxNDYtMS44MTQ2LTQuMTM5NS0yLjcyMTMtNi4zMjE5LTIuNjcxN3oiLz48L2c+PC9zdmc+;" vertex="1" parent="1">
          <mxGeometry x="620" y="54" width="52" height="52" as="geometry" />
        </mxCell>
        <mxCell id="xrln1t2OAtCOszoa6FAw-33" value="&lt;font style=&quot;font-size: 10px;&quot;&gt;&lt;span style=&quot;text-wrap: nowrap; background-color: rgb(255, 255, 255);&quot;&gt;Patator&amp;nbsp;&lt;/span&gt;&lt;br style=&quot;padding: 0px; margin: 0px; text-wrap: nowrap;&quot;&gt;&lt;span style=&quot;text-wrap: nowrap; background-color: rgb(255, 255, 255);&quot;&gt;(Brute Force Tool)&lt;/span&gt;&lt;/font&gt;" style="text;strokeColor=none;align=center;fillColor=none;html=1;verticalAlign=middle;whiteSpace=wrap;rounded=0;fontFamily=Helvetica;fontSize=12;fontColor=default;" vertex="1" parent="1">
          <mxGeometry x="620" y="20" width="60" height="30" as="geometry" />
        </mxCell>
        <mxCell id="xrln1t2OAtCOszoa6FAw-36" value="&lt;span style=&quot;font-size: 10px; text-wrap: nowrap;&quot;&gt;Guess List&amp;nbsp;&lt;/span&gt;&lt;div&gt;&lt;span style=&quot;font-size: 10px; text-wrap: nowrap;&quot;&gt;of usernames&amp;nbsp;&lt;/span&gt;&lt;/div&gt;&lt;div&gt;&lt;span style=&quot;font-size: 10px; text-wrap: nowrap;&quot;&gt;&amp;amp; passwords&lt;/span&gt;&lt;/div&gt;" style="text;strokeColor=none;align=center;fillColor=none;html=1;verticalAlign=middle;whiteSpace=wrap;rounded=0;fontFamily=Helvetica;fontSize=12;fontColor=default;" vertex="1" parent="1">
          <mxGeometry x="498.13" y="10" width="81.25" height="50" as="geometry" />
        </mxCell>
        <mxCell id="xrln1t2OAtCOszoa6FAw-39" value="" style="endArrow=classic;startArrow=classic;html=1;rounded=0;fontFamily=Helvetica;fontSize=12;fontColor=default;exitX=0;exitY=0.5;exitDx=0;exitDy=0;exitPerimeter=0;entryX=1;entryY=0.5;entryDx=0;entryDy=0;entryPerimeter=0;" edge="1" parent="1" source="VUZSVhgWxLLKm5Znk2dG-9" target="VUZSVhgWxLLKm5Znk2dG-1">
          <mxGeometry width="50" height="50" relative="1" as="geometry">
            <mxPoint x="300" y="190" as="sourcePoint" />
            <mxPoint x="350" y="140" as="targetPoint" />
          </mxGeometry>
        </mxCell>
        <mxCell id="xrln1t2OAtCOszoa6FAw-40" value="" style="endArrow=classic;startArrow=classic;html=1;rounded=0;fontFamily=Helvetica;fontSize=12;fontColor=default;exitX=0.5;exitY=0;exitDx=0;exitDy=0;exitPerimeter=0;entryX=0.25;entryY=1;entryDx=0;entryDy=0;" edge="1" parent="1" source="VUZSVhgWxLLKm5Znk2dG-2" target="xrln1t2OAtCOszoa6FAw-28">
          <mxGeometry width="50" height="50" relative="1" as="geometry">
            <mxPoint x="590" y="230" as="sourcePoint" />
            <mxPoint x="640" y="180" as="targetPoint" />
          </mxGeometry>
        </mxCell>
        <mxCell id="xrln1t2OAtCOszoa6FAw-41" value="" style="endArrow=classic;startArrow=classic;html=1;rounded=0;fontFamily=Helvetica;fontSize=12;fontColor=default;exitX=0.5;exitY=1;exitDx=0;exitDy=0;exitPerimeter=0;entryX=0.5;entryY=0;entryDx=0;entryDy=0;entryPerimeter=0;" edge="1" parent="1" source="xrln1t2OAtCOszoa6FAw-25" target="VUZSVhgWxLLKm5Znk2dG-2">
          <mxGeometry width="50" height="50" relative="1" as="geometry">
            <mxPoint x="530" y="270" as="sourcePoint" />
            <mxPoint x="580" y="220" as="targetPoint" />
          </mxGeometry>
        </mxCell>
        <mxCell id="xrln1t2OAtCOszoa6FAw-42" value="&lt;font style=&quot;font-size: 10px;&quot;&gt;Captures Bi-Directional network traffic and saves it in .csv format&lt;/font&gt;" style="text;strokeColor=none;align=center;fillColor=none;html=1;verticalAlign=middle;whiteSpace=wrap;rounded=0;fontFamily=Helvetica;fontSize=12;fontColor=default;" vertex="1" parent="1">
          <mxGeometry x="264" y="54" width="105" height="30" as="geometry" />
        </mxCell>
        <mxCell id="xrln1t2OAtCOszoa6FAw-43" value="" style="shape=image;verticalLabelPosition=bottom;labelBackgroundColor=default;verticalAlign=top;aspect=fixed;imageAspect=0;image=data:image/jpeg,/9j/4AAQSkZJRgABAQAAAQABAAD/2wBDAAMCAgMCAgMDAwMEAwMEBQgFBQQEBQoHBwYIDAoMDAsKCwsNDhIQDQ4RDgsLEBYQERMUFRUVDA8XGBYUGBIUFRT/2wBDAQMEBAUEBQkFBQkUDQsNFBQUFBQUFBQUFBQUFBQUFBQUFBQUFBQUFBQUFBQUFBQUFBQUFBQUFBQUFBQUFBQUFBT/wgARCADIAMgDASIAAhEBAxEB/8QAHAABAAMAAwEBAAAAAAAAAAAAAAEGBwIEBQMI/8QAGwEBAAMAAwEAAAAAAAAAAAAAAAQFBgECAwf/2gAMAwEAAhADEAAAAf1SAAAAAAAAAAAAAAAAACHj51V2Gq/b8/d2otd2Z5oN/RcxMjgAAAAAcSlxfe5VnMYzOhs+n/n70PD3udX8rROna1+LaOvrcrg275J4OP1uw1qrdHv0230MAsNlX6/Pnehpc/I78AAAcce2LGM7e2yy+daJsDJ7jZzt8+XJZ18JcuPS77pzQerpCtsOpjG441XT9AstYs9zUSJ0YAADji+04vnL7RLLVrTbVQTYwjhLjPCR2AMZ2bGM5e3y1Viz2lZInxQAAIx/X8soLqy3Cg36ZDCzg8KTdsBz918vV8KMPuP0D3KBf/pXzfkJ0WMQ27A8votcsPmenfUciV4gAARnuh1WsnVbU8S2yFNkaCk4YxtXg1Flh8RZvnn0HQbPM/UvmIiR5dfAdky7H6jb/rE67Lh2AAAOn3I6c/nrfccvmR1FwROwyzxfa6/l6fne0+rYsNs7fMTvsQ48uJnnQ8TQ8bqrYNnlQAAAETHCiVbW8Ix+q/QE+F7erzHIe3QAB4ns5LV2Fb3nPdHgzJk0VGAAAAiRxoOgfKHIxjaMXsGa0Glzw5bDLyOSI8/z7eZkv00vGayy9uJ2mSDvwAAAAAiR52Mbv59Na0XR8X+lRabO8Dwb+is+QdfQM1outosc9Tm4kmxQAAAAAAAPjRr8hycG9fYZprbw/a5Tf0Ye3QAAAAAAAAAAAAAAAAD/xAAqEAABBAECBgIBBQEAAAAAAAAEAQIDBQYAMBAREhMgNRRAUBUhIiMkMf/aAAgBAQABBQL87z1IRHFpHIv1rKwbWwlZGVPpznzuGsSBNA5Or3p9BXI1DMgFG0zICCzuesnJiePRhxnGwiQjtsqgWaEd3SRCRHO28JkEBEynQx8Bbdu3vVBmKsCDFYBO+GGVYZSbYovQ4U5S0dLKBNqePuwlY+WNpr5BpJrcgkYYeQuR8cosgmQkj6BLQ0bZyJedpjgEDw7KJ0teLi88uhcfEG0jUangQFCUhWLRP1UVBIFnMPGQ21gaMfj/AKrZv/a456vcyD2uO+r2b/2uP+r3Mh9rjfrNnIPbY4vOr8efnkC87XHfV7OSt5WeMO51vhe3ihLKVNM4G6JCeISwuDwundVpQt6arZytnIzE3/5+K6PespvDEZFUfiujn9wytZ2wNnLY/wCvE5ORXhfgOEO1/wB1j4DgQeJD+3C1O7LG3oZs5HD3ayim7Np4XTEdW6x1jX2qeF9N2aynh79ltFRd+BqqPNBIksXG59ZrGva+GWEfxxWDrK2l1ejfGscaK74HGaJJ458Tl66iiSuenhdE/KsccG7Fdt5SJ3B8eM+KemzbGfCCEgUsmNiRs254WzxEwODJqD/nB7GSH/JKxcH993Jq7uMpbH9PKa5HJ5XVkgAwo7zSRoGjQ7rmo9txWLXkUFx0aRefiabGDAaW88ihq/hQ75obDYDwJK+amv8AoRq9ScDrGICM+wksJqGl1y+iYFGbFZVEte+uupgNC3QpTLDJWM1JJKZNUY/2tIn03MSRLDGmv1ODOO8KiIL0BUwAJ9bkn4b/xAAvEQABAwIEAggHAQAAAAAAAAACAQMEAAUREhMhECAUIjAxNEFRgSMkMjNAYXGR/9oACAEDAQE/Afwo0F6VuCbUVlLDqnvT8dyOWVxOwZZN88jab03aQbwWSdSrTqGmjsNOK3BiKyJ9am3jA82apMdq5YG2e6UzbGwZVJP+07aCwzMFilKiiuC8tm8T7VJcLpBKq9y09PkPbEXFFUd0rp76tq0S4otWYi11HHyqSmDx/wB5bL4j2qT94/7zWbxPtUr75/3ltC4SkqcOWSafvhaooyXuv3JRxWTHIo7VKa0Hib9OFkT4xF+qeXFwl5YJ6cgFq8Blk4+vC3ySjPIqedSHdFonPSnXFdNTLz4Wr4bDjy8yLguNXNNeO3IHg2WU0KplyjuRiEV3Xi78rbkDzLntpJJjnFKjBWyUC5IMfpDyD5Vdn9R7THuHnjvFHcRwauEdJQJLZ9+IipLglIg2uNv9ZUq4rivYQZxRSwX6VqRbwkprxV9qCI+4eRB3oGmLWOdzc6kSDknnPsmZDkdcW1o7y8o4ImC0Zk4uYl/D/8QALxEAAQMCBAQEBQUAAAAAAAAAAgEDBAAFEBESIRMgMXEwMjRBFDNAUWEVIiMkkf/aAAgBAgEBPwH6KTcGYq6S60N8TV+4Nqjym5I6m18B98I4azp68OObRxqLdlaEld3WmxdnykdINqdjtm2oaaiyHbaqi4G1P3Nw3kKP/lM3lPK+OVCSGKEnLe/Tp3qIyHwqJl1SmbbHZ6DnSIidMCAT2JK/TWEcRwUyVKvbYo0h5b51D+QHblvfyE71D9OHbHNMb36dO9QvTh25bymcbOrcWqKGF3lHHaRA6rQSXQLUhVDeV9gXFwvhfxiP5qMmlkU/HLcA4kY0qynqj6fthc4ySGFz9qZb4rqN/emWhYbRsfbC7LxZDbSUKZJlymOoVFatRcCSbC4PDrbIUqJbpASRUh2TFn+3cVP2TnuYLFkjJGmnEdBDHkuMn4dhV91qzx1ba4q9S55UdJLStrVukrEcWK9iZoCaipVK6ytvIlCiCmSeBcICSk1D5kqLcXIq8GUlHOjgGvVTjz91PQ2mQ1FjBFDQPhPxWpKZGlBZGkLMi2ptoWk0gn0f/8QANRAAAgECAQgJAgYDAAAAAAAAAQIDABEhEhMgIjAxQVEEECMyUmFxgbFAQjNQYnKRoYLB0f/aAAgBAQAGPwL8+13C+prD6bOMpa5tYVZLQr5b6JYs5rspSBy4Ukc8eLG2Uv0OJtRCtnW5JUCC0cZcCw6kjV1Zw17A0UlF1C3tWTHGqjyFSSZvJcC91wqJjuDg/wB1eNw48qMkTZLZQq3SI/8AJKvFIG8toYY0u9t5rtZCR4eFNLmyI1FyxpJBvU3rXlNvCuArsombz4UZpWFytskdTpe2ULVgudXmtYFon/iszKwdedsayIhlNa9q1g0Tj2qznPL+rfSTAWDcDspPIChO0YaS5xNToguxQgCrysIhy3mr5Gdbm+NWAto2ljV/WrwOYzyOIoNIupknWFZMiBx51LHGLINwqH3+dlN7fFR+p2svtUfvspvb4qLayegpfU7Kb2+Kj9TtZfao/U7I+aircmOjmYfxeJ5VlPKzHzNDXMkfFWpJU7raPSPX/VQfzsom5pUycmvozsd+WeuZOCthoztzc10deSDZQP52qZOa30We3ZSG4PWMvvvrHQduQvQHiNKvIbJz4NaojwbV0Z7i9lv1JlC+B0ZubDJqBeF77OSPxC1A/cjUjjcwvodI/YepP2nRhh56xqSXwi20k5PrCsg96M20GRhdWFjXZSqU/VWcdsuXd6aMp4LqilY75DlbRZwMY9/pQU9yTV99lI/3bl9ajjG9zSqNww2jxtuYWp4z3kNK/wB4wb12OZU6kfzTdJYfpXbDpKDFcG9Kx/CfBquMRpmx7V8FpYl7zHfSRoLKottiDiKw/Cbumh0aY4fYx+NIySH250ZH3ncOVZyQdq/9D6Bo5BgayH3cG50IeknDhJ/2rjHrypDjwXnWW+A4LyodJnH7VPz9EY5BcfFY68XBxVr5yLwmr5wIRvDYUU6MMtvGd1Xa8khoTdIxfgnL6SzC4ov0Y5B8B3VkyRMD6UCRmk5tWqt38Z3/AJ7/AP/EACoQAQACAAQEBgIDAQAAAAAAAAEAESExQVEgMGFxEIGRobHwQOHB0fFQ/9oACAEBAAE/If8Ain49+BYEnLAgt4jcl/imcAjclyqO/wBU1wjW1ih1Jx9EwGIO67kxfgMEAaswUPqe8ugXYyl7zAYy/qVcQpi5namrxPDZZSa+OmgNadPQELb2O5TAQvPWPh91tOsjWxPKecOUcMgr4FxR0cwHlA+6YSVAZE5vcl0HcCnWOz5TcoRay18EKsW21kvEi7vpLoc2tRneAj0JmirqSkZcWKlWDZ/kiM7nQxqDyR6Ie0RXSruqdJUPoNWpVbOoVa+nYQ8IGgQOCik6MZaQzCANS+yP9nTcv4wxMsI7+jNDkMd/Zkgr7mPhXJqMwdj4R33vlDkM+90T5fzzGfabR3f0vXksFfRkmb8g9+C/BJrBvhZ2gfCGuv8AJyWWfffx/EIOEsBay1xr/c6iXj10ZX6RWbC+0M/Fl+2IeiVzcfUsOT2dvR/cN1w+o/XBgi14szvKjEdlHzH64MBMVrKL5y/M/gcq2rk29/8AJ0ZvQ/vhuU7KOpCUoAtdDWUAp6dtjg6//sjUVvysrTIDlUMWo/t7S+sLH55e8OCv6yL0YQlAjA71wGZqqg849BYv8sYZcoVMljJpkuox2LCHiJ9TtDgoG4pDtlLzMKz1f8hyhMr171n73KFs17aQ8brwB0g3cHDIkdXYohQJk8WVi23lH7uVYq57actmL0ldyXjrFfD715QrXEUbqYvVFemrAboaEOUwmLYiWxmBfhgXWhxd8aygtYb1m7Bn+rA5b4LgpUmu7yiCvQNusApZiJL4VhthVG3WWiOK2bswygOcQVmCMTAb72uk7f8AoPADxZQMDLUtpbNZQ6NppksvahzqlkTIdR3iEnZGAnQMN8f2gglHJPC436UZxdmnLyhB6385ASuey/mZOq3ImRY4D5iZ3jy7MYEFa7EE0I0H9yzWGmq9iAimZpd0oKh+E1I+CMXBzNR22nqIIPnHl30sfSaDrHNTX8SpUW0lEqV/w//aAAwDAQACAAMAAAAQ88888408888888800ggqfww88888+CmFlPRN98888lThTKBBb/8APPPMQfJlcPE9/PPOCA/MwHvC1vPPPNw/IX9qH3fPPPOX3qEtks1PPPPPvl9POHPdPPPPPIf4PGERvPPPPPPOOgsmPPPPPPPPLND+/PPPPPPPPPPPPPPPPPP/xAAoEQEAAQIEBQQDAQAAAAAAAAABEQAhEDFRYSBBcbHBMIHR8ECRoeH/2gAIAQMBAT8Q/CG94ayGTmVYyfQFSKRaE8j5pBgIu71PvWmcvTKgpQzdlokuCI+edEYCLY8qmDVODhOESnd4q+pJE7NCyA0LFKrLg9LDVsERfP8AdXQRK3LlUS3d+HNN3ijBbu+MOIldXinLbu/DDNRMYiSMjMa1E37KEBkWEug8q3cXvwyrqH7tUvygfGFwggPvQmkwmKzdlOA252KWVXhYhmUegoff/cAayEf7UkMYiMTPW8l+3G9d4k+7NFRCMcCPll3oUZJYj358fJM/pVymSz7pzxDnK0jV9uxSMl30MxeYeSm4r3fhpU4uqbRU7xsj4+adt0ND0rdvZ6lQPalLVK6/h//EACgRAQACAQIFBAIDAQAAAAAAAAEAESExURAgQWFxMIHh8EDRkaGxwf/aAAgBAgEBPxD8K8N7CagD6xNarX0L80Syxd3McldxNY9L2olMDjBRFc2YvDSHul0Ut/iPDY6cqQNxHDBqJ3Jn7G7mCUMSoZQTvG8YXjSAYbkVt2c3O/A4MGaHi68CGr9nK67Elw7VwRmlq4HdfmCjlM+eHm0Kls/zlrXa/wCJ3Uk4DipzPaZ6qwTTEFcPGr+2AY6coaQSovW//PiEXWSJK4yWvSEWi4/utY5mBPhc+fmPhhL5AKege8Yj+jn68OnZmGkvD96MEdOCdKCBgfp+YbOg9DR9oO8scowP3WXuEdtYUYP3MMj5d30s53frLGHZAtAPw//EACkQAQACAQIFBAIDAQEAAAAAAAEAESExQVFhcYGREDChscHwIEBQ4dH/2gAIAQEAAT8Q/wATNnCBNf6zKxptEc7QKzyuAWHyJYwLtLHGvvaavo+i1MpKbQ1tqFyuhiK4pAGLqPolcV28RzZVi3L9q2naHBszxZRZplNGLB4y5cdJdVftLa5qch7zOXJWglimNcAeeiVQ6LYERXG9giLFXG4YEAygLQ01l2SAbAKUzWWbBQQC+rvHJnPRROQw6bkOgweyC+CKSpgI+JWWqqYNER2/cQV7WNzut+lh7GcFOsskXHByixr7Lq7zQy2U2MGsQHLhegp+YFMaGoW1eXtAGA+myy+5EdwZehRl73CRtZNQ81iGLoNysq3Rtp8ysQyhGy8guu8yWtS6Obz4uIlDTYbzMMTYikFVlph8RbipsFCrq98wOl8iHMd+0XOfKByP5uHCTIFQkeRgvsJlhHTaz2v5gaN2BKFHBptHM6udKASwJa/i8HmYSzc1ctB4h8WopBAMaQMOxEwQBvSP6oqxR0dSXmjJ9pqeWGDhbatUcTubRIm2MW/KWHIOL53K9WiYD2FTOmww0JVrpzyhlCJylEr01lBKlERBjSFuGrQoXY/nBm/YyioJHl5fdDT+ChrFdi/5aI6umbKIHbhA09fYyqZq5Rw3k7FTxDT1pLHcmCSdWDkIkHnLv10TYeF8P/YyHcnnAz7GExVWT8wNrdV5W3+YaeujyZokmlG0xCdWcoa6GhHlBaXFczaPxMeXHFbjzG4eCj1eI2vHYX5Lioa5bgo+/YOkTDcCjy08lOSHIT8oaeuD5imHVVpSA7AHaGHKYReVspsNYP1rCx9cxhZULkXD4j4EG9aSqfYeW0QvDpQs+0thAMLyqQaeupVQD3A5hcvzvJyeU0ZxLFnAaiXBAB72mbldgC+ays616XmA648cmGlDFbr/ANIWnE9ivZY9QLvAGvkYT0b2D8BHj1dI1v1VdBhOcQHaEJEmwGD1go9RmXY0BtNumuyvaYDDXgFHawO8xHtUfr+y6sogRExbUmUeSC2EzcS4Nl+ul/aoafwgt7RW84h4TKOgKt3XxLSk7jd27fIgo9rBpHEXZRj9BGUhRLleV4a7RX63zGTdFP3EdQUKLg0N/ECYvYm1A51rAmXo4jAVZXreI8lgtg9gzbHwDzDT2nEtxVNdK+zXmYKeWuDd8qQr9hlfw25nAPGvaLWgq2tfguGQFBsBRNHtaJYX8uCVGgWA4Uuw7ZlXwPIjV6OHvBWhkP4ukWpThfU0bXwY63GooWqa8L4PMBOECva0RHhLA9ZM7Hc+ImsY1Rwdt+IG8IhYjokQEEdPW6gVDhKN3xPkfdTL45raar2vPGoGAID7le4wt50axHUjOyNrxPmfUJUapTHMfrxKFmB0b1h19dUrwGi6AHGJWtQxZgH7cVABFWux17v/ACYe9UJRkV7K0HBIs426zbJz4ktvpWcrgn64w6IrRYkVNy5eGZuU224B+YvWqmY/y841kqjcnAHfSiMDGk1X790xAd5R9AmzGU7JAbB2dos0bnIPxdNOkqYIcHdzhOZN3BgTpmv0lh/0U8hsHIh21Tcrs8T9SiBQFAQUf0a1h35Q7Eignav7zX6RBtY26IYZr8kypy1+YfbmhB6HA5EDi/qUGiV4RXJepAigiUlP8P8A/9k=;" vertex="1" parent="1">
          <mxGeometry x="221.5" y="30" width="40" height="40" as="geometry" />
        </mxCell>
      </root>
    </mxGraphModel>
  </diagram>
</mxfile>
